<svg width="167" height="93" viewBox="0 0 167 93" fill="none" xmlns="http://www.w3.org/2000/svg">
<mask id="path-1-inside-1_107_11" fill="white">
<path d="M165.317 33.4908C165.766 27.4128 165.215 20.1104 161.079 17.785C156.414 15.1698 151.538 14.6409 146.83 14.1266C142.78 13.6847 138.955 13.2717 135.724 11.5113C134.196 10.6782 132.472 9.33078 130.653 7.91087C127.176 5.20147 123.59 2.40512 119.432 1.47059C114.97 0.470863 109.841 0 103.292 0C100.018 0 96.7362 0.115909 93.5705 0.224575C91.0858 0.304263 88.7459 0.383914 86.464 0.412892C76.4308 0.536047 69.7589 2.05014 60.03 6.44749C53.887 9.21485 47.9467 11.9822 42.9483 14.3294C38.9422 16.2057 36.6241 16.5027 31.5387 17.1402L30.9448 17.2127C22.0345 18.3355 7.12587 20.2119 1.27983 29.8759C-0.741287 33.2228 -0.357361 36.8885 2.35195 39.9239C5.13371 43.039 9.24119 44.4299 12.8995 45.3789C14.6816 45.8425 16.6086 46.2337 18.7818 46.5597C18.9919 46.596 19.1801 46.6322 19.3685 46.6757C20.8753 52.7827 26.3881 57.3322 32.9513 57.3322C39.0943 57.3322 44.3319 53.3695 46.2154 47.813L46.2516 47.8202C50.1055 47.871 53.9594 47.9217 57.8205 47.9651C71.3961 48.1245 82.4362 48.197 92.578 48.197C100.619 48.197 108.073 48.1463 115.26 48.0593C117.353 53.2173 122.424 56.7961 128.219 56.7961C134.21 56.7961 139.419 52.9348 141.382 47.5232C142.164 47.5305 143.048 47.5378 143.99 47.5378C156.884 47.5378 162.144 46.212 163.759 42.5029V42.5101L163.839 42.3073C163.998 41.9451 164.158 41.5321 164.295 41.0757L166.802 32.8388L165.317 33.4908ZM39.0727 43.633C38.9134 46.893 36.2184 49.4502 32.9513 49.4502C29.5755 49.4502 26.8228 46.7046 26.8228 43.3215V43.2056C26.8517 41.7857 27.3807 40.4744 28.2283 39.4457C29.4815 37.9968 31.3504 37.3304 33.0601 37.3304C33.8424 37.3304 35.4941 37.4825 36.914 38.6634C37.3342 39.0183 37.7036 39.424 38.0151 39.8804C38.0296 39.9021 38.044 39.9239 38.0584 39.9456C38.1381 40.076 38.2251 40.2064 38.2976 40.3441C38.3555 40.4455 38.4062 40.5469 38.4497 40.6411C38.4786 40.699 38.5077 40.7497 38.5294 40.8077C38.7395 41.3148 38.8119 41.7422 38.8916 42.2566C38.9423 42.5608 39.0003 42.8433 39.0727 43.1114C39.0727 43.1838 39.08 43.2491 39.08 43.3215C39.08 43.4302 39.08 43.5316 39.0727 43.633V43.633ZM128.219 48.9142C125.148 48.9142 122.533 46.625 122.134 43.5026C122.105 43.2998 122.091 43.0607 122.091 42.7854C122.091 41.025 122.844 39.4385 124.047 38.3156C125.162 37.526 126.669 37.0768 128.299 37.0768C129.748 37.0768 131.11 37.4535 132.153 38.0983C133.493 39.2284 134.348 40.9091 134.348 42.7854C134.348 42.9231 134.341 43.0535 134.333 43.1839L134.319 43.3288C134.044 46.4728 131.378 48.9142 128.219 48.9142ZM156.74 38.6344C155.638 39.0038 152.48 39.6631 143.99 39.6631C143.294 39.6631 142.628 39.6558 142.005 39.6486C141.483 36.9175 140.216 34.9687 139.049 33.6792C138.347 32.8968 137.528 32.2158 136.644 31.629C134.297 29.8542 131.385 28.782 128.219 28.782C124.706 28.782 121.504 30.0932 119.041 32.2303C118.374 32.7592 117.737 33.3315 117.186 33.969C116.013 35.3237 114.76 37.3666 114.332 40.1919C107.436 40.2716 100.271 40.3151 92.578 40.3151C82.4652 40.3151 71.4541 40.2426 57.9076 40.0905C54.1116 40.047 50.3157 39.9963 46.527 39.9456C46.3894 39.3805 46.2154 38.8372 46.0053 38.3011C46.0053 38.2867 45.998 38.2649 45.9908 38.2432C45.9038 38.0186 45.8097 37.8013 45.7083 37.5767C45.6142 37.3594 45.4983 37.1275 45.3824 36.8957C45.3172 36.7653 45.252 36.6422 45.1868 36.519C45.1288 36.4321 45.0999 36.3451 45.0419 36.251C44.6652 35.6062 44.2378 35.0049 43.7742 34.4471C43.7597 34.4254 43.7452 34.4109 43.7307 34.3964C43.2019 33.7589 42.6222 33.1793 42.0065 32.6577C41.8688 32.5491 41.7458 32.4404 41.6082 32.3317C41.5068 32.252 41.398 32.1724 41.2821 32.0927C38.9567 30.3613 36.0735 29.3181 32.9513 29.3181C29.0612 29.3181 25.5189 30.9553 22.9617 33.5778C21.5274 35.0122 20.4046 36.7581 19.7164 38.7358C17.9198 38.4605 16.3332 38.1345 14.8844 37.7578C12.3634 37.0986 9.61793 36.2292 8.22705 34.6717C7.98799 34.4036 7.90833 34.237 7.89384 34.2298C7.90109 34.1936 7.93726 34.0994 8.02419 33.9545C11.8926 27.5577 24.4395 25.9784 31.9299 25.0366L32.5167 24.9569C37.9136 24.276 41.1663 23.8703 46.2951 21.4651C51.2646 19.1324 57.1686 16.3796 63.2754 13.6195C72.0988 9.64229 77.532 8.39626 86.551 8.2876C88.9198 8.26586 91.3103 8.17892 93.8385 8.09923C96.939 7.99057 100.148 7.88187 103.292 7.88187C109.247 7.88187 113.825 8.28756 117.708 9.15689C120.142 9.70022 123.018 11.946 125.807 14.1193C127.799 15.6769 129.857 17.2779 131.95 18.4298C136.55 20.9363 141.338 21.4579 145.975 21.9578C149.93 22.3924 153.675 22.7981 156.855 24.4571C157.964 26.7101 157.602 35.157 156.74 38.6344V38.6344Z"/>
</mask>
<path d="M165.317 33.4908C165.766 27.4128 165.215 20.1104 161.079 17.785C156.414 15.1698 151.538 14.6409 146.83 14.1266C142.78 13.6847 138.955 13.2717 135.724 11.5113C134.196 10.6782 132.472 9.33078 130.653 7.91087C127.176 5.20147 123.59 2.40512 119.432 1.47059C114.97 0.470863 109.841 0 103.292 0C100.018 0 96.7362 0.115909 93.5705 0.224575C91.0858 0.304263 88.7459 0.383914 86.464 0.412892C76.4308 0.536047 69.7589 2.05014 60.03 6.44749C53.887 9.21485 47.9467 11.9822 42.9483 14.3294C38.9422 16.2057 36.6241 16.5027 31.5387 17.1402L30.9448 17.2127C22.0345 18.3355 7.12587 20.2119 1.27983 29.8759C-0.741287 33.2228 -0.357361 36.8885 2.35195 39.9239C5.13371 43.039 9.24119 44.4299 12.8995 45.3789C14.6816 45.8425 16.6086 46.2337 18.7818 46.5597C18.9919 46.596 19.1801 46.6322 19.3685 46.6757C20.8753 52.7827 26.3881 57.3322 32.9513 57.3322C39.0943 57.3322 44.3319 53.3695 46.2154 47.813L46.2516 47.8202C50.1055 47.871 53.9594 47.9217 57.8205 47.9651C71.3961 48.1245 82.4362 48.197 92.578 48.197C100.619 48.197 108.073 48.1463 115.26 48.0593C117.353 53.2173 122.424 56.7961 128.219 56.7961C134.21 56.7961 139.419 52.9348 141.382 47.5232C142.164 47.5305 143.048 47.5378 143.99 47.5378C156.884 47.5378 162.144 46.212 163.759 42.5029V42.5101L163.839 42.3073C163.998 41.9451 164.158 41.5321 164.295 41.0757L166.802 32.8388L165.317 33.4908ZM39.0727 43.633C38.9134 46.893 36.2184 49.4502 32.9513 49.4502C29.5755 49.4502 26.8228 46.7046 26.8228 43.3215V43.2056C26.8517 41.7857 27.3807 40.4744 28.2283 39.4457C29.4815 37.9968 31.3504 37.3304 33.0601 37.3304C33.8424 37.3304 35.4941 37.4825 36.914 38.6634C37.3342 39.0183 37.7036 39.424 38.0151 39.8804C38.0296 39.9021 38.044 39.9239 38.0584 39.9456C38.1381 40.076 38.2251 40.2064 38.2976 40.3441C38.3555 40.4455 38.4062 40.5469 38.4497 40.6411C38.4786 40.699 38.5077 40.7497 38.5294 40.8077C38.7395 41.3148 38.8119 41.7422 38.8916 42.2566C38.9423 42.5608 39.0003 42.8433 39.0727 43.1114C39.0727 43.1838 39.08 43.2491 39.08 43.3215C39.08 43.4302 39.08 43.5316 39.0727 43.633V43.633ZM128.219 48.9142C125.148 48.9142 122.533 46.625 122.134 43.5026C122.105 43.2998 122.091 43.0607 122.091 42.7854C122.091 41.025 122.844 39.4385 124.047 38.3156C125.162 37.526 126.669 37.0768 128.299 37.0768C129.748 37.0768 131.11 37.4535 132.153 38.0983C133.493 39.2284 134.348 40.9091 134.348 42.7854C134.348 42.9231 134.341 43.0535 134.333 43.1839L134.319 43.3288C134.044 46.4728 131.378 48.9142 128.219 48.9142ZM156.74 38.6344C155.638 39.0038 152.48 39.6631 143.99 39.6631C143.294 39.6631 142.628 39.6558 142.005 39.6486C141.483 36.9175 140.216 34.9687 139.049 33.6792C138.347 32.8968 137.528 32.2158 136.644 31.629C134.297 29.8542 131.385 28.782 128.219 28.782C124.706 28.782 121.504 30.0932 119.041 32.2303C118.374 32.7592 117.737 33.3315 117.186 33.969C116.013 35.3237 114.76 37.3666 114.332 40.1919C107.436 40.2716 100.271 40.3151 92.578 40.3151C82.4652 40.3151 71.4541 40.2426 57.9076 40.0905C54.1116 40.047 50.3157 39.9963 46.527 39.9456C46.3894 39.3805 46.2154 38.8372 46.0053 38.3011C46.0053 38.2867 45.998 38.2649 45.9908 38.2432C45.9038 38.0186 45.8097 37.8013 45.7083 37.5767C45.6142 37.3594 45.4983 37.1275 45.3824 36.8957C45.3172 36.7653 45.252 36.6422 45.1868 36.519C45.1288 36.4321 45.0999 36.3451 45.0419 36.251C44.6652 35.6062 44.2378 35.0049 43.7742 34.4471C43.7597 34.4254 43.7452 34.4109 43.7307 34.3964C43.2019 33.7589 42.6222 33.1793 42.0065 32.6577C41.8688 32.5491 41.7458 32.4404 41.6082 32.3317C41.5068 32.252 41.398 32.1724 41.2821 32.0927C38.9567 30.3613 36.0735 29.3181 32.9513 29.3181C29.0612 29.3181 25.5189 30.9553 22.9617 33.5778C21.5274 35.0122 20.4046 36.7581 19.7164 38.7358C17.9198 38.4605 16.3332 38.1345 14.8844 37.7578C12.3634 37.0986 9.61793 36.2292 8.22705 34.6717C7.98799 34.4036 7.90833 34.237 7.89384 34.2298C7.90109 34.1936 7.93726 34.0994 8.02419 33.9545C11.8926 27.5577 24.4395 25.9784 31.9299 25.0366L32.5167 24.9569C37.9136 24.276 41.1663 23.8703 46.2951 21.4651C51.2646 19.1324 57.1686 16.3796 63.2754 13.6195C72.0988 9.64229 77.532 8.39626 86.551 8.2876C88.9198 8.26586 91.3103 8.17892 93.8385 8.09923C96.939 7.99057 100.148 7.88187 103.292 7.88187C109.247 7.88187 113.825 8.28756 117.708 9.15689C120.142 9.70022 123.018 11.946 125.807 14.1193C127.799 15.6769 129.857 17.2779 131.95 18.4298C136.55 20.9363 141.338 21.4579 145.975 21.9578C149.93 22.3924 153.675 22.7981 156.855 24.4571C157.964 26.7101 157.602 35.157 156.74 38.6344V38.6344Z" fill="black" stroke="white" stroke-width="2" mask="url(#path-1-inside-1_107_11)"/>
<path d="M33.8427 62.9264L33.8407 62.9337L33.8389 62.9411C33.8155 63.0403 33.733 63.1402 33.6089 63.1885C33.5023 63.2257 33.3743 63.2128 33.2663 63.1425C32.2967 62.4664 30.6936 61.6653 28.6171 61.6653C27.0203 61.6653 25.8851 62.2609 25.1598 63.1563C24.4483 64.0346 24.169 65.1531 24.169 66.1569C24.169 67.4733 24.4598 68.5323 25.2634 69.4879C26.0429 70.4147 27.2728 71.2036 29.047 72.0744C31.4627 73.2825 33.1396 74.6208 34.2165 76.202C35.2893 77.7772 35.7959 79.6366 35.7959 81.9424C35.7959 84.4034 35.0621 86.8489 33.5407 88.6697C32.0301 90.4776 29.7126 91.7078 26.4511 91.7078C23.9574 91.7078 21.1469 90.7785 19.6324 89.5017C19.5242 89.4082 19.4764 89.2618 19.5112 89.118C19.5113 89.1177 19.5114 89.1175 19.5114 89.1172L20.3866 85.6091C20.3867 85.6087 20.3868 85.6083 20.3869 85.6078C20.4203 85.4793 20.5154 85.3794 20.6202 85.3429C20.7479 85.301 20.8826 85.3263 20.978 85.4009L20.9791 85.4017C22.6161 86.6733 24.7363 87.4411 26.6757 87.4411C28.1858 87.4411 29.45 86.9715 30.3352 86.054C31.2183 85.1388 31.6671 83.8373 31.6671 82.283C31.6671 80.8881 31.3608 79.7445 30.5865 78.7426C29.826 77.7584 28.6494 76.9584 27.0087 76.1674L27.001 76.1637L26.9933 76.1603C24.6625 75.1326 22.9362 73.8146 21.7923 72.2351C20.6516 70.66 20.069 68.7962 20.069 66.635C20.069 61.3019 23.7223 57.5 28.7329 57.5C31.7885 57.5 33.7357 58.517 34.6037 59.1024C34.7415 59.1954 34.8007 59.3626 34.7624 59.5081C34.7624 59.5083 34.7623 59.5085 34.7622 59.5088L33.8427 62.9264Z" fill="#13110C" stroke="white"/>
<path d="M43.6268 86.4558V86.9558H44.1268H54.3483C54.5522 86.9558 54.7249 87.1249 54.7249 87.3396V90.8024C54.7249 91.0117 54.5575 91.179 54.3483 91.179H39.9035C39.6988 91.179 39.5269 91.0088 39.5269 90.8024V58.3547C39.5269 58.1582 39.6961 57.9854 39.9035 57.9854H53.7833C53.9852 57.9854 54.1525 58.1527 54.1525 58.3547V61.8248C54.1525 62.0322 53.9799 62.2013 53.7833 62.2013H44.1268H43.6268V62.7013V71.2497V71.7497H44.1268H53.1747C53.3739 71.7497 53.544 71.9143 53.544 72.1263V75.5892C53.544 75.8011 53.374 75.9657 53.1747 75.9657H44.1268H43.6268V76.4657V86.4558Z" fill="#13110C" stroke="white"/>
<path d="M70.9099 74.9027L70.3538 75.2668L70.8577 75.7002C72.18 76.8374 73.1344 78.8192 73.6836 81.8294L74.1755 81.7396L73.6836 81.8296C74.0385 83.7706 74.3874 85.6459 74.7141 87.1929C75.0372 88.7229 75.3484 89.9817 75.635 90.6572L75.635 90.6572L75.6384 90.6649C75.6821 90.7633 75.6751 90.9024 75.6049 91.0132C75.5365 91.1137 75.4172 91.179 75.2911 91.179H71.8719C71.7264 91.179 71.5949 91.0961 71.5288 90.9547C71.3472 90.5592 71.125 89.8054 70.8386 88.5203C70.5549 87.2472 70.216 85.4902 69.7927 83.1166C69.398 80.8186 68.8493 79.3333 68.0498 78.4118C67.2186 77.4538 66.1786 77.1721 65.0131 77.118L65.0016 77.1175H64.99H62.7877H62.2877V77.6175V90.8024C62.2877 91.0117 62.1204 91.179 61.9112 91.179H58.5645C58.3651 91.179 58.1951 91.0142 58.1951 90.8024V58.7893C58.1951 58.6109 58.3157 58.4642 58.4663 58.4273L58.4663 58.4273L58.4703 58.4263C60.1574 57.9974 62.5768 57.739 64.9537 57.739C68.6729 57.739 71.0006 58.6278 72.6468 60.5159C73.9702 62.0352 74.7549 64.365 74.7549 66.9247C74.7549 70.4626 73.3217 73.3242 70.9099 74.9027ZM62.2877 72.6914V73.1914H62.7877H65.2942C66.9205 73.1914 68.2878 72.6439 69.2455 71.6126C70.1993 70.5855 70.6985 69.1309 70.6985 67.4029C70.6985 65.6102 70.2703 64.1783 69.3135 63.1902C68.3551 62.2004 66.9501 61.7424 65.1858 61.7159L65.1858 61.7159H65.1783C64.113 61.7159 63.2744 61.797 62.6897 61.9139L62.2877 61.9943V62.4042V72.6914Z" fill="#13110C" stroke="white"/>
<path d="M94.2032 58.2602L94.2038 58.2578C94.2462 58.0974 94.3923 57.9854 94.5609 57.9854H98.0959C98.2239 57.9854 98.3262 58.0415 98.3836 58.1224L98.3913 58.1333L98.3996 58.1438C98.4656 58.227 98.49 58.3406 98.4571 58.4512L98.4571 58.4512L98.4552 58.4579L89.2999 90.9004C89.2997 90.9011 89.2995 90.9018 89.2993 90.9025C89.2504 91.0652 89.1006 91.179 88.9321 91.179H85.2882C85.1163 91.179 84.9648 91.0573 84.9263 90.9006L84.9264 90.9006L84.9248 90.8943L76.5225 58.4507C76.5223 58.4502 76.5222 58.4497 76.5221 58.4491C76.4951 58.3392 76.5184 58.2208 76.5936 58.1228L76.5936 58.1228L76.5951 58.1208C76.6544 58.0427 76.7638 57.9854 76.8849 57.9854H80.4998C80.6711 57.9854 80.8149 58.0989 80.8541 58.2616L80.8541 58.2616L80.8551 58.2656L85.0636 75.1289C85.0636 75.1292 85.0637 75.1295 85.0638 75.1298C85.6939 77.6939 86.2937 80.1658 86.8138 82.535L87.7898 82.5383C88.3311 80.1494 89.01 77.4621 89.8705 74.3382L89.8712 74.3356L94.2032 58.2602ZM76.8849 57.4854C76.6169 57.4854 76.3561 57.6085 76.1967 57.8186L81.3402 58.1446C81.246 57.7534 80.8982 57.4854 80.4998 57.4854H76.8849Z" fill="#13110C" stroke="white"/>
<path d="M100.791 57.9854H104.137C104.349 57.9854 104.514 58.1553 104.514 58.3547V90.8024C104.514 91.0117 104.347 91.179 104.137 91.179H100.791C100.586 91.179 100.414 91.009 100.414 90.8024V58.3547C100.414 58.158 100.583 57.9854 100.791 57.9854Z" fill="#13110C" stroke="white"/>
<path d="M128.013 90.1116L128.014 90.1111C128.142 90.0354 128.216 89.8751 128.183 89.7124L127.503 86.3461C127.503 86.3458 127.503 86.3455 127.503 86.3453C127.478 86.225 127.4 86.1274 127.283 86.0756C127.157 86.0242 127.031 86.0416 126.956 86.0913L126.949 86.0957L126.942 86.0998C125.614 86.9127 123.627 87.3904 121.734 87.3904C118.774 87.3904 116.38 86.1828 114.742 83.9596C113.117 81.7551 112.265 78.595 112.265 74.7198C112.265 70.7406 113.129 67.4979 114.779 65.2364C116.443 62.9558 118.878 61.7159 121.893 61.7159C123.723 61.7159 125.489 62.1686 126.861 63.0058M128.013 90.1116L126.602 63.433M128.013 90.1116C126.745 90.864 124.22 91.7078 121.017 91.7078C117.069 91.7078 113.841 90.0755 111.588 87.18C109.325 84.2725 108.021 80.0567 108.021 74.8719C108.021 69.6106 109.43 65.261 111.842 62.238C114.247 59.2244 117.667 57.5 121.777 57.5C125.589 57.5 127.588 58.6468 128.065 58.9608L128.34 58.5431L128.07 58.9636C128.188 59.0395 128.258 59.1988 128.222 59.3593C128.222 59.3598 128.222 59.3603 128.222 59.3608L127.428 62.7681M128.013 90.1116L127.913 62.8897M126.861 63.0058C126.862 63.0059 126.862 63.0061 126.862 63.0062L126.602 63.433M126.861 63.0058C126.861 63.0057 126.861 63.0055 126.861 63.0054L126.602 63.433M126.861 63.0058C126.972 63.0723 127.094 63.0805 127.199 63.0367C127.307 62.9916 127.392 62.8975 127.428 62.7681M126.602 63.433C126.841 63.5779 127.13 63.6069 127.391 63.4982C127.652 63.3895 127.841 63.165 127.913 62.8897M127.428 62.7681L127.426 62.7762L127.913 62.8897M127.428 62.7681C127.428 62.7662 127.429 62.7643 127.429 62.7625L127.913 62.8897" fill="#13110C" stroke="white"/>
<path d="M135.642 86.4558V86.9558H136.142H146.363C146.567 86.9558 146.74 87.1249 146.74 87.3396V90.8024C146.74 91.0117 146.573 91.179 146.363 91.179H131.919C131.715 91.179 131.549 91.0171 131.549 90.8024V58.3547C131.549 58.1499 131.712 57.9854 131.919 57.9854H145.791C146.003 57.9854 146.168 58.1554 146.168 58.3547V61.8248C146.168 62.0295 145.998 62.2013 145.791 62.2013H136.142H135.642V62.7013V71.2497V71.7497H136.142H145.19C145.394 71.7497 145.566 71.9197 145.566 72.1263V75.5892C145.566 75.7957 145.394 75.9657 145.19 75.9657H136.142H135.642V76.4657V86.4558Z" fill="#13110C" stroke="white"/>
<circle cx="33" cy="44" r="8" fill="#E52A2D"/>
<circle cx="129" cy="44" r="8" fill="#E52A2D"/>
</svg>
