<svg width="161" height="164" viewBox="0 0 161 164" fill="none" xmlns="http://www.w3.org/2000/svg">
<path d="M156.389 94.7234L156.389 94.7232L112.25 50.5832L156.389 94.7234ZM156.389 94.7234C161.815 100.142 161.815 108.954 156.389 114.38L112.25 158.513L112.58 158.843L112.25 158.513C106.816 163.947 98.0126 163.946 92.5865 158.513L92.5863 158.513L48.455 114.38L48.4547 114.38C43.0215 108.953 43.0218 100.143 48.4545 94.7236L48.455 94.7232M156.389 94.7234L48.455 94.7232M48.455 94.7232L92.5937 50.583C98.0197 45.1568 106.816 45.1564 112.25 50.583L48.455 94.7232ZM115.775 135.4L115.775 135.4L133.269 117.899C136.986 114.197 136.985 108.171 133.269 104.462C129.56 100.746 123.55 100.747 119.835 104.462L102.333 121.965L102.332 121.965C98.6245 125.681 98.6234 131.699 102.333 135.401C106.042 139.117 112.06 139.116 115.775 135.4Z" fill="black" stroke="white"/>
<path d="M86.4258 69.5318L64.4297 91.5357L55.223 82.3218L55.5527 81.1091L55.6183 80.8678L55.4647 80.6706L49.3362 72.8032L49.0844 72.4801L48.7181 72.6633L46.6205 73.712L39.5236 66.6216L40.3433 61.7031L40.3855 61.4493L40.2036 61.2673L33.5537 54.617L33.3015 54.3648L32.981 54.5211L29.2447 56.3425L25.4667 52.5644L27.66 38.1154L27.7832 37.3036L27.0054 37.5667L14.644 41.7486L6.2842 33.3813L0.800797 6.52287L56.0202 61.8293L56.1948 62.0041L56.4398 61.9716L63.3218 61.0588L64.3255 60.9257L63.6096 60.2097L7.00046 3.59175L17.4586 0.562455L86.4258 69.5318Z" fill="black" stroke="white"/>
<path d="M137.485 100.455C138.454 101.435 138.888 102.938 138.751 104.916C138.614 106.893 137.908 109.281 136.678 111.932C134.219 117.229 129.713 123.474 123.732 129.39C117.75 135.307 111.457 139.746 106.133 142.146C103.47 143.348 101.074 144.028 99.0955 144.143C97.1162 144.259 95.6178 143.809 94.6488 142.829C93.6797 141.849 93.2458 140.346 93.3829 138.368C93.52 136.391 94.2257 134.003 95.4559 131.352C97.9145 126.055 102.421 119.811 108.402 113.894C114.384 107.977 120.677 103.539 126 101.138C128.664 99.9365 131.06 99.2567 133.038 99.1412C135.018 99.0255 136.516 99.4757 137.485 100.455Z" fill="#FD0F0F" stroke="white"/>
</svg>
