<svg width="144" height="144" viewBox="0 0 144 144" fill="none" xmlns="http://www.w3.org/2000/svg">
<path d="M132.568 59.3318H133.186L133.057 58.7272C127.018 30.502 101.876 9.2727 71.8619 9.2727C41.84 9.2727 16.7133 30.5021 10.6596 58.7269L10.5299 59.3318H11.1485H48.8472H49.138L49.2818 59.079C53.7537 51.2155 62.1981 45.8934 71.8619 45.8934C81.5255 45.8934 89.9628 51.2153 94.4421 59.0793L94.586 59.3318H94.8766H132.568ZM63.8955 133.945L64.4587 134.017V133.449V97.1329V96.766L64.1087 96.656C55.5169 93.9554 48.8493 86.8899 46.6816 78.0624L46.5881 77.6816H46.196H10.0764H9.5229L9.57896 78.2322C12.522 107.138 35.2104 130.286 63.8955 133.945ZM63.9587 84.6871L63.6958 85.1123C66.0683 86.5793 68.868 87.4328 71.8619 87.4328C75.2916 87.4328 78.4581 86.3017 81.0307 84.4245L81.0321 84.4235C83.1472 82.8688 84.8688 80.8043 85.9778 78.3922C86.9061 76.4077 87.4225 74.1988 87.4225 71.8645C87.4225 66.1074 84.2925 61.0927 79.6467 58.3993C77.3647 57.075 74.6998 56.2961 71.8619 56.2961C69.0164 56.2961 66.3592 57.0752 64.0638 58.3986L64.0625 58.3994C59.424 61.0928 56.2942 66.1074 56.2942 71.8645C56.2942 74.1993 56.8104 76.4086 57.7392 78.3935C59.0332 81.1683 61.1057 83.5103 63.6957 85.1123L63.9587 84.6871ZM80.5677 96.2999L80.236 96.4185V96.7707V133.326H80.736L80.8072 133.821C109.032 129.76 131.239 106.809 134.138 78.2321L134.194 77.6816H133.64H97.5281H97.1365L97.0427 78.0618C94.9461 86.555 88.6982 93.393 80.5677 96.2999ZM0.5 71.8645C0.5 32.5065 32.5124 0.5 71.8619 0.5C111.211 0.5 143.224 32.5065 143.224 71.8645C143.224 111.222 111.211 143.229 71.8619 143.229C32.5124 143.229 0.5 111.222 0.5 71.8645Z" fill="#13110C" stroke="white"/>
<ellipse cx="72" cy="71.5" rx="15" ry="15.5" fill="#E52A2D"/>
</svg>
